<svg height="512" viewBox="0 0 64 64" width="512" xmlns="http://www.w3.org/2000/svg"><g id="Graphic_tablet" data-name="Graphic tablet"><rect fill="#2488ff" height="44" rx="2" width="58" x="3" y="17"/><rect fill="#d1e7f8" height="36" rx="2" width="44" x="13" y="21"/><circle cx="8" cy="39" fill="#ff3051" r="2"/><path d="m6 25h4v4h-4z" fill="#d1e7f8"/><path d="m6 29h4v4h-4z" fill="#9bc9ff"/><path d="m6 45h4v4h-4z" fill="#d1e7f8"/><path d="m6 49h4v4h-4z" fill="#9bc9ff"/><path d="m50 3a2.06 2.06 0 0 0 -2.059 2l-.941 34h6l-.941-34a2.06 2.06 0 0 0 -2.059-2z" fill="#ffc477"/><path d="m13 31v24a2 2 0 0 0 2 2h24c-14.371 0-26-10.523-26-26z" fill="#9bc9ff"/><g fill="#f1f2f2"><path d="m17 30a1 1 0 0 0 1-1v-3h3a1 1 0 0 0 0-2h-4a1 1 0 0 0 -1 1v4a1 1 0 0 0 1 1z"/><path d="m17 54h4a1 1 0 0 0 0-2h-3v-3a1 1 0 0 0 -2 0v4a1 1 0 0 0 1 1z"/><path d="m49 54h4a1 1 0 0 0 1-1v-4a1 1 0 0 0 -2 0v3h-3a1 1 0 0 0 0 2z"/></g><path d="m50 42a1 1 0 0 0 -1 1v2a1 1 0 0 0 2 0v-2a1 1 0 0 0 -1-1z" fill="#58595b"/><path d="m47 41a3 3 0 0 0 6 0v-2h-6z" fill="#ff3051"/></g></svg>