<svg height="512pt" viewBox="-155 0 511 512" width="512pt" xmlns="http://www.w3.org/2000/svg"><path d="m130.40625 512h-59.195312c-8.496094 0-15.386719-6.886719-15.386719-15.382812v-59.199219c0-8.496094 6.890625-15.382813 15.386719-15.382813h59.195312c8.496094 0 15.382812 6.886719 15.382812 15.382813v59.199219c0 8.496093-6.886718 15.382812-15.382812 15.382812zm0 0" fill="#414952"/><path d="m130.40625 422.035156h-29.597656v89.964844h29.597656c8.496094 0 15.382812-6.886719 15.382812-15.382812v-59.199219c0-8.496094-6.886718-15.382813-15.382812-15.382813zm0 0" fill="#23272b"/><path d="m148.304688 452.804688h-95c-29.117188 0-52.804688-23.691407-52.804688-52.804688v-347.195312c0-29.117188 23.6875-52.804688 52.804688-52.804688h95c29.117187 0 52.804687 23.6875 52.804687 52.804688v347.195312c0 29.113281-23.6875 52.804688-52.804687 52.804688zm0 0" fill="#636978"/><path d="m148.304688 0h-47.496094v452.804688h47.496094c29.117187 0 52.804687-23.691407 52.804687-52.804688v-347.195312c0-29.117188-23.6875-52.804688-52.804687-52.804688zm0 0" fill="#414952"/><path d="m100.804688 406.316406c-31.246094 0-56.667969-25.421875-56.667969-56.667968 0-31.246094 25.421875-56.664063 56.667969-56.664063 31.246093 0 56.664062 25.417969 56.664062 56.664063 0 31.246093-25.417969 56.667968-56.664062 56.667968zm0 0" fill="#64e1dc"/><path d="m100.808594 292.984375v113.332031c31.242187-.003906 56.660156-25.421875 56.660156-56.667968 0-31.242188-25.417969-56.664063-56.660156-56.664063zm0 0" fill="#00c8c8"/><path d="m100.804688 283.070312c-31.246094 0-56.667969-25.417968-56.667969-56.664062s25.421875-56.667969 56.667969-56.667969c31.246093 0 56.664062 25.421875 56.664062 56.667969s-25.417969 56.664062-56.664062 56.664062zm0 0" fill="#f2d813"/><path d="m100.808594 169.738281v113.332031c31.242187-.003906 56.660156-25.421874 56.660156-56.664062 0-31.246094-25.417969-56.664062-56.660156-56.667969zm0 0" fill="#ffbc36"/><path d="m100.804688 159.824219c-31.246094 0-56.667969-25.417969-56.667969-56.664063s25.421875-56.664062 56.667969-56.664062c31.246093 0 56.664062 25.417968 56.664062 56.664062s-25.417969 56.664063-56.664062 56.664063zm0 0" fill="#fe8205"/><path d="m100.808594 46.496094v113.328125c31.242187 0 56.660156-25.417969 56.660156-56.664063 0-31.242187-25.417969-56.664062-56.660156-56.664062zm0 0" fill="#ff475a"/></svg>